<?xml version="1.0" standalone="no"?>
<!DOCTYPE svg PUBLIC "-//W3C//DTD SVG 20010904//EN"
 "http://www.w3.org/TR/2001/REC-SVG-20010904/DTD/svg10.dtd">
<svg version="1.0" xmlns="http://www.w3.org/2000/svg"
 width="1200.000000pt" height="1200.000000pt" viewBox="0 0 1200.000000 1200.000000"
 preserveAspectRatio="xMidYMid meet">
<metadata>
Created by potrace 1.14, written by Peter Selinger 2001-2017
</metadata>
<g transform="translate(0.000000,1200.000000) scale(0.100000,-0.100000)"
fill="#000000" stroke="none">
<path d="M5699 11996 c-2 -2 -56 -6 -119 -10 -63 -3 -126 -8 -140 -10 -14 -2
-54 -7 -90 -11 -122 -12 -200 -22 -243 -31 -12 -2 -39 -6 -62 -9 -33 -5 -132
-22 -230 -41 -281 -53 -788 -204 -1020 -304 -11 -4 -56 -23 -100 -40 -288
-115 -669 -316 -965 -508 -214 -140 -480 -338 -480 -357 0 -5 17 -28 36 -50
69 -77 90 -102 299 -345 115 -135 212 -247 215 -250 3 -3 45 -52 95 -110 49
-58 92 -107 95 -110 3 -3 45 -52 95 -110 49 -58 94 -110 100 -116 5 -6 50 -59
100 -117 l89 -106 41 33 c22 18 96 71 165 118 396 272 808 464 1280 597 155
43 378 91 500 107 25 3 52 7 60 9 8 2 43 7 78 10 35 4 72 8 83 10 45 9 294 19
454 18 204 0 345 -9 510 -33 39 -5 90 -12 115 -15 48 -7 269 -50 335 -66 113
-28 301 -83 310 -90 5 -5 16 -9 25 -9 20 0 251 -87 375 -141 283 -124 623
-322 855 -498 l65 -49 18 22 c10 11 37 43 60 70 23 27 47 54 52 60 6 6 120
139 255 296 134 157 249 290 255 296 5 6 30 35 55 65 25 29 61 72 81 94 20 22
49 55 65 74 16 19 36 42 44 51 8 9 37 43 65 75 27 33 52 62 55 65 27 26 120
140 120 147 0 22 -383 296 -615 440 -172 107 -497 278 -675 356 -19 8 -60 26
-90 40 -157 71 -569 217 -755 267 -134 37 -149 40 -170 45 -11 2 -38 9 -60 14
-162 41 -455 94 -640 116 -27 3 -64 8 -82 10 -17 3 -69 7 -115 10 -46 4 -94 9
-108 12 -27 5 -735 14 -741 9z"/>
<path d="M1752 10233 c-226 -227 -321 -334 -488 -548 -133 -170 -350 -489
-428 -630 -9 -16 -26 -46 -37 -65 -80 -132 -220 -411 -288 -570 -18 -41 -39
-88 -46 -105 -124 -279 -286 -805 -351 -1140 -4 -22 -8 -44 -9 -50 -2 -5 -6
-28 -9 -50 -3 -22 -13 -76 -20 -120 -8 -44 -18 -105 -21 -135 -4 -30 -9 -62
-10 -70 -1 -8 -6 -49 -10 -90 -4 -41 -9 -86 -11 -100 -19 -146 -26 -783 -11
-985 12 -148 33 -348 43 -405 2 -14 7 -43 10 -65 6 -46 8 -58 30 -180 8 -49
22 -117 29 -150 8 -33 16 -71 19 -85 30 -165 157 -586 241 -806 110 -286 273
-629 420 -884 168 -294 436 -670 664 -935 173 -202 529 -546 741 -715 24 -19
48 -40 54 -45 72 -67 455 -334 626 -437 686 -411 1441 -683 2225 -801 142 -22
171 -26 250 -33 39 -3 81 -8 95 -10 69 -11 284 -19 540 -19 361 0 572 14 890
61 118 17 322 54 410 75 397 94 713 197 1095 357 102 43 504 249 630 323 344
201 752 500 1010 738 70 65 361 356 415 416 158 173 417 508 550 710 40 61 81
122 91 137 10 15 19 30 19 34 0 3 8 18 19 32 108 155 344 630 457 922 75 194
178 505 199 600 2 8 17 69 34 135 27 109 82 368 95 455 3 19 7 44 10 55 2 11
7 45 11 75 4 30 9 62 10 70 5 29 25 206 30 265 27 325 27 902 0 1100 -2 17 -9
73 -15 125 -6 52 -13 106 -15 119 -2 13 -7 45 -11 70 -11 81 -26 167 -49 286
-8 39 -17 85 -20 104 -3 19 -8 37 -10 41 -2 4 -7 21 -10 38 -11 64 -49 208
-111 422 -100 346 -327 867 -535 1224 -19 32 -45 77 -58 99 -31 54 -236 362
-297 447 -64 88 -224 290 -298 375 -34 38 -74 85 -91 105 -16 19 -110 115
-207 214 l-177 178 -88 -103 c-48 -57 -92 -109 -98 -115 -5 -6 -30 -35 -55
-64 -25 -30 -54 -63 -65 -74 -11 -12 -40 -46 -65 -76 -25 -30 -54 -64 -65 -76
-11 -11 -40 -44 -65 -74 -25 -29 -59 -69 -76 -89 -44 -51 -237 -275 -293 -340
-25 -30 -84 -97 -130 -150 -46 -53 -94 -110 -107 -127 l-23 -30 111 -115 c167
-172 317 -355 460 -559 61 -87 178 -277 178 -289 0 -5 3 -11 8 -13 8 -3 20
-26 108 -198 233 -460 378 -953 438 -1490 24 -215 25 -610 2 -825 -20 -187
-24 -214 -46 -340 -25 -142 -24 -134 -60 -283 -31 -128 -74 -280 -90 -317 -4
-11 -18 -49 -30 -85 -11 -36 -25 -74 -30 -85 -5 -11 -24 -58 -43 -105 -73
-183 -207 -453 -222 -450 -6 1 -71 61 -146 134 -75 72 -234 226 -354 341 -119
116 -252 244 -295 285 -133 129 -532 514 -606 586 -40 38 -172 166 -294 284
-122 118 -248 240 -280 270 -321 310 -330 320 -370 404 -90 194 -116 248 -170
366 -32 69 -81 174 -109 234 -28 59 -51 110 -51 111 0 2 -31 69 -70 150 -38
81 -70 149 -70 151 0 2 -21 47 -46 101 -72 152 -109 233 -139 298 -15 33 -43
94 -62 135 -20 41 -51 109 -70 150 -82 177 -214 462 -253 545 -23 50 -50 109
-61 133 -11 23 -21 42 -23 42 -1 0 -3 -852 -4 -1894 l-2 -1894 117 -115 c65
-63 150 -146 189 -184 40 -37 172 -165 294 -283 122 -118 261 -253 310 -300
48 -47 195 -189 326 -316 132 -128 273 -264 314 -304 41 -40 181 -175 310
-300 129 -125 289 -280 355 -344 l120 -116 -25 -20 c-56 -45 -299 -210 -309
-210 -6 0 -11 -4 -11 -10 0 -5 -4 -10 -9 -10 -5 0 -51 -25 -102 -55 -409 -242
-969 -439 -1464 -515 -38 -6 -81 -13 -95 -15 -14 -2 -54 -7 -90 -10 -36 -4
-78 -8 -95 -10 -221 -25 -660 -21 -870 9 -22 3 -62 8 -90 11 -42 4 -149 22
-300 50 -32 6 -182 44 -280 70 -441 118 -980 380 -1355 658 -30 23 -57 43 -59
44 -3 2 25 31 61 66 36 34 170 163 298 287 128 124 253 245 279 269 25 24 116
111 202 195 130 126 405 392 669 646 31 30 160 155 286 277 126 121 261 251
299 288 39 37 111 107 161 156 l91 89 0 597 c1 329 2 1053 3 1608 3 1301 1
1590 -9 1579 -5 -5 -35 -65 -66 -134 -32 -69 -82 -176 -111 -239 -30 -62 -54
-115 -54 -117 0 -2 -20 -45 -44 -96 -44 -91 -150 -321 -468 -1008 -88 -190
-179 -387 -204 -438 -24 -51 -44 -94 -44 -96 0 -2 -24 -55 -54 -117 -30 -63
-67 -144 -84 -181 -32 -69 -28 -65 -326 -351 -72 -70 -443 -429 -581 -562
-106 -103 -512 -495 -576 -556 -36 -35 -160 -155 -275 -266 -115 -111 -245
-236 -289 -279 -44 -42 -132 -128 -196 -190 l-116 -113 -41 72 c-114 199 -233
486 -325 782 -51 162 -121 485 -141 650 -4 28 -9 68 -12 90 -30 243 -35 734
-10 895 3 14 7 54 11 90 20 216 83 521 161 777 78 258 228 603 371 851 46 80
207 331 235 367 5 6 43 55 85 110 102 132 222 271 343 396 107 110 105 103 56
156 -12 12 -26 28 -31 35 -22 28 -249 294 -259 303 -6 6 -47 53 -91 105 -44
52 -82 97 -85 100 -3 3 -32 37 -65 75 -33 39 -62 72 -65 75 -3 3 -86 100 -185
215 -99 116 -182 212 -186 215 -3 3 -31 36 -63 73 l-57 69 -177 -179z"/>
</g>
</svg>
